<svg width="16" height="16" viewBox="0 0 16 16" fill="none" xmlns="http://www.w3.org/2000/svg">
<path d="M2.23127 -6.04931e-05C1.98304 -0.000248489 1.73721 0.0484688 1.50782 0.143309C1.27842 0.238148 1.06996 0.377252 0.894341 0.552675C0.718719 0.728097 0.579379 0.9364 0.484279 1.16569C0.389178 1.39497 0.340182 1.64075 0.340088 1.88897C0.340088 2.93366 1.18657 3.79947 2.22912 3.79947C3.2731 3.79947 4.1203 2.93366 4.1203 1.8904C4.12049 1.64221 4.07176 1.39642 3.97692 1.16706C3.88207 0.937709 3.74295 0.729294 3.56752 0.55373C3.39209 0.378166 3.18378 0.238892 2.9545 0.14387C2.72522 0.0488479 2.47946 -6.05644e-05 2.23127 -6.04931e-05ZM11.456 5.00874C9.86825 5.00874 8.96023 5.83877 8.52375 6.6645H8.47795V5.23127H5.34889V15.7419H8.60961V10.5392C8.60961 9.16819 8.71265 7.843 10.4092 7.843C12.0814 7.843 12.1058 9.40646 12.1058 10.6257V15.7419H15.3665V9.96888C15.3665 7.14392 14.759 5.00874 11.456 5.00874ZM0.59983 5.23056V15.7419H3.8627V5.23056H0.59983Z" fill="#173F5F"/>
</svg>
