<svg width="17" height="16" viewBox="0 0 17 16" fill="none" xmlns="http://www.w3.org/2000/svg">
<path d="M5.29462 -6.10352e-05C2.75372 -6.10352e-05 0.665771 2.08503 0.665771 4.62878V11.113C0.665771 13.6539 2.75086 15.7419 5.29462 15.7419H11.7789C14.3198 15.7419 16.4077 13.6568 16.4077 11.113V4.6295C16.4077 2.08789 14.3226 -6.10352e-05 11.7789 -6.10352e-05H5.29462ZM5.29462 1.43102H11.7789C12.199 1.43046 12.615 1.51279 13.0033 1.67329C13.3915 1.83379 13.7442 2.06931 14.0413 2.36637C14.3383 2.66342 14.5739 3.01616 14.7344 3.40439C14.8949 3.79261 14.9772 4.20869 14.9766 4.62878V11.113C14.9772 11.5331 14.8949 11.9492 14.7344 12.3374C14.5739 12.7257 14.3383 13.0784 14.0413 13.3754C13.7442 13.6725 13.3915 13.908 13.0033 14.0685C12.615 14.229 12.199 14.3114 11.7789 14.3108H5.29533C4.87518 14.3114 4.45902 14.2292 4.07071 14.0687C3.68241 13.9083 3.32958 13.6728 3.03245 13.3757C2.73532 13.0786 2.49974 12.7259 2.33919 12.3376C2.17864 11.9493 2.09629 11.5332 2.09686 11.113V4.6295C2.0962 4.20934 2.17845 3.79319 2.33891 3.40488C2.49937 3.01657 2.73488 2.66375 3.03194 2.36662C3.32901 2.06949 3.68178 1.8339 4.07005 1.67336C4.45832 1.51281 4.87446 1.43046 5.29462 1.43102ZM12.7627 2.99663C12.6775 2.99625 12.593 3.01276 12.5142 3.04521C12.4354 3.07765 12.3638 3.12539 12.3035 3.18566C12.2432 3.24594 12.1955 3.31755 12.163 3.39638C12.1306 3.4752 12.1141 3.55967 12.1145 3.64491C12.1145 4.00555 12.4021 4.29319 12.7627 4.29319C12.848 4.29367 12.9326 4.27723 13.0115 4.24483C13.0904 4.21242 13.1621 4.1647 13.2224 4.10442C13.2828 4.04413 13.3306 3.97248 13.3631 3.89361C13.3956 3.81474 13.4121 3.73021 13.4117 3.64491C13.4121 3.55961 13.3956 3.47508 13.3631 3.39621C13.3306 3.31734 13.2828 3.24569 13.2224 3.18541C13.1621 3.12512 13.0904 3.0774 13.0115 3.045C12.9326 3.0126 12.848 2.99616 12.7627 2.99663ZM8.53674 3.57765C6.17545 3.57765 4.24348 5.50962 4.24348 7.87091C4.24348 10.2322 6.17545 12.1642 8.53674 12.1642C10.898 12.1642 12.83 10.2322 12.83 7.87091C12.83 5.50962 10.898 3.57765 8.53674 3.57765ZM8.53674 5.00874C10.1274 5.00874 11.3989 6.28026 11.3989 7.87091C11.3989 9.46156 10.1274 10.7331 8.53674 10.7331C6.94609 10.7331 5.67457 9.46156 5.67457 7.87091C5.67457 6.28026 6.94609 5.00874 8.53674 5.00874Z" fill="#173F5F"/>
</svg>
