<svg width="18" height="14" viewBox="0 0 18 14" fill="none" xmlns="http://www.w3.org/2000/svg">
<path d="M17.4721 1.6561C16.8291 1.94076 16.1469 2.12721 15.4485 2.20921C16.1838 1.76892 16.7341 1.0765 16.997 0.260788C16.3055 0.670605 15.5493 0.959984 14.7609 1.11658C14.2779 0.600207 13.6507 0.241108 12.9609 0.0859739C12.271 -0.0691603 11.5505 -0.0131523 10.8929 0.246715C10.2353 0.506582 9.67113 0.958285 9.2737 1.54309C8.87628 2.12789 8.66401 2.81874 8.66448 3.52581C8.66448 3.80272 8.69525 4.07105 8.7575 4.32793C7.35612 4.25895 5.985 3.89546 4.73349 3.26114C3.48199 2.62682 2.37819 1.73591 1.49403 0.646465C1.17989 1.1842 1.01512 1.7961 1.01676 2.41886C1.01676 3.6403 1.63714 4.71933 2.58452 5.35116C2.02493 5.3334 1.47776 5.18176 0.988855 4.90895V4.95403C0.988371 5.76773 1.26966 6.55649 1.7849 7.18627C2.30015 7.81604 3.01758 8.24798 3.81525 8.40867C3.29653 8.55093 2.75204 8.57198 2.22388 8.47021C2.44885 9.17023 2.88686 9.78249 3.47671 10.2215C4.06657 10.6605 4.77881 10.9043 5.51395 10.9188C4.78312 11.4924 3.94635 11.9163 3.05151 12.1662C2.15668 12.416 1.22135 12.487 0.299072 12.3749C1.90942 13.4112 3.7843 13.9615 5.69927 13.9598C12.1807 13.9598 15.7255 8.59042 15.7255 3.93367C15.7255 3.7834 15.7197 3.62885 15.714 3.47787C16.4028 2.97917 16.9979 2.36267 17.4721 1.65681V1.6561Z" fill="#173F5F"/>
</svg>
