<svg width="14" height="14" viewBox="0 0 14 14" fill="none" xmlns="http://www.w3.org/2000/svg">
<path d="M4.69804 0.00012207C3.5594 0.00012207 2.46739 0.452446 1.66225 1.25759C0.857109 2.06273 0.404785 3.15474 0.404785 4.29338V9.30218C0.404785 10.4408 0.857109 11.5328 1.66225 12.338C2.46739 13.1431 3.5594 13.5954 4.69804 13.5954H9.70684C10.8455 13.5954 11.9375 13.1431 12.7426 12.338C13.5478 11.5328 14.0001 10.4408 14.0001 9.30218V5.72446C14.0001 5.53469 13.9247 5.35269 13.7905 5.2185C13.6563 5.08431 13.4743 5.00892 13.2846 5.00892H12.569C12.3792 5.00892 12.1972 4.93353 12.063 4.79934C11.9289 4.66515 11.8535 4.48315 11.8535 4.29338C11.8535 3.15474 11.4011 2.06273 10.596 1.25759C9.79086 0.452446 8.69885 0.00012207 7.56021 0.00012207H4.69804ZM4.69804 3.57783H7.56021C7.95376 3.57783 8.27575 3.89983 8.27575 4.29338C8.27575 4.68693 7.95376 5.00892 7.56021 5.00892H4.69804C4.30449 5.00892 3.9825 4.68693 3.9825 4.29338C3.9825 3.89983 4.30449 3.57783 4.69804 3.57783ZM4.69804 8.58663H9.70684C10.1004 8.58663 10.4224 8.90863 10.4224 9.30218C10.4224 9.69572 10.1004 10.0177 9.70684 10.0177H4.69804C4.30449 10.0177 3.9825 9.69572 3.9825 9.30218C3.9825 8.90863 4.30449 8.58663 4.69804 8.58663Z" fill="#173F5F"/>
</svg>
