<svg width="17" height="16" viewBox="0 0 17 16" fill="none" xmlns="http://www.w3.org/2000/svg">
<path d="M15.6228 5.82362L10.9652 5.14671L8.88308 0.925658C8.82622 0.810089 8.73266 0.716532 8.61709 0.659664C8.32725 0.516578 7.97503 0.635817 7.83011 0.925658L5.74802 5.14671L1.09038 5.82362C0.961965 5.84196 0.844561 5.9025 0.754673 5.99422C0.646004 6.10591 0.586123 6.25618 0.588186 6.412C0.59025 6.56782 0.654091 6.71645 0.76568 6.82522L4.13555 10.1107L3.3394 14.75C3.32073 14.8579 3.33267 14.9689 3.37387 15.0704C3.41507 15.1719 3.48388 15.2598 3.5725 15.3241C3.66112 15.3885 3.766 15.4268 3.87524 15.4345C3.98449 15.4423 4.09373 15.4194 4.19058 15.3682L8.3566 13.1779L12.5226 15.3682C12.6363 15.4288 12.7684 15.4489 12.895 15.4269C13.2142 15.3719 13.4288 15.0692 13.3738 14.75L12.5776 10.1107L15.9475 6.82522C16.0392 6.73533 16.0998 6.61793 16.1181 6.48952C16.1676 6.16849 15.9438 5.87131 15.6228 5.82362Z" fill="#FECB1C"/>
</svg>
