<svg width="16" height="16" viewBox="0 0 16 16" fill="none" xmlns="http://www.w3.org/2000/svg">
<path d="M0.313511 5.99422C0.204842 6.10591 0.14496 6.25618 0.147024 6.412C0.149088 6.56782 0.212929 6.71645 0.324518 6.82522L3.69439 10.1107L2.89824 14.75L15.3259 6.64113L11.9565 9.92615L11.8595 10.0207L11.8824 10.1543L12.6786 14.7936L12.6786 14.7938C12.7094 14.9721 12.5896 15.142 12.41 15.1729L12.4097 15.173C12.3384 15.1854 12.2646 15.1737 12.2026 15.1407L12.2014 15.1401L8.03539 12.9497L7.91544 12.8867L7.79549 12.9497L3.62947 15.1401L3.62907 15.1403C3.57481 15.1689 3.51361 15.1818 3.45241 15.1774C3.39121 15.1731 3.33246 15.1516 3.28281 15.1156C3.23317 15.0795 3.19462 15.0303 3.17154 14.9734C3.14846 14.9166 3.14177 14.8544 3.15223 14.7939L3.15228 14.7936L3.94843 10.1543L3.97135 10.0207L3.87432 9.92615L0.504455 6.64066L0.504439 6.64065C0.441772 6.57956 0.405919 6.49609 0.40476 6.40859C0.403603 6.32123 0.437115 6.23698 0.497944 6.17429M0.313511 5.99422L0.497606 6.17463C0.497718 6.17452 0.497831 6.1744 0.497944 6.17429M0.313511 5.99422L0.498258 6.17396C0.498153 6.17407 0.498048 6.17418 0.497944 6.17429M0.313511 5.99422C0.403399 5.9025 0.520803 5.84196 0.649214 5.82362L5.30686 5.14671L7.38895 0.925658C7.53387 0.635817 7.88609 0.516578 8.17593 0.659664L15.3261 6.64097C15.378 6.58999 15.4116 6.52423 15.4218 6.45307L15.4222 6.45021C15.4495 6.27354 15.3266 6.10592 15.1441 6.07863C15.144 6.07861 15.1439 6.07859 15.1438 6.07858L10.4869 5.40179L10.3528 5.38229L10.2928 5.26073L8.21076 1.03968L8.21065 1.03946C8.1789 0.974941 8.12664 0.922688 8.06212 0.89094L8.06183 0.890793C7.90013 0.810969 7.7018 0.877035 7.61976 1.0404C7.61967 1.04058 7.61959 1.04076 7.6195 1.04093L5.53803 5.26073L5.47807 5.38229L5.34393 5.40179L0.686285 6.0787L0.685667 6.07879C0.614584 6.08894 0.548893 6.12245 0.497944 6.17429" stroke="#FECB1C" stroke-width="0.515517"/>
</svg>
